# xmcd
#
# Track frame offsets: 
#        150
#        12364
#        24261
#        33455
#        49703
#        62302
#        74855
#        86420
#        100705
#        111273
#
# Disc length: 1632 seconds
#
# Revision: 0
# Processed by: cddbd v1.5.2PL0 Copyright (c) Steve Scherf et al.
# Submitted via: ExactAudioCopy v0.99pb3
#
DISCID=79065e0a
DTITLE=Moe Randy - Cowboy Songs
DYEAR=2003
DGENRE=Country
TTITLE0=San Antonio Rose
TTITLE1=High Noon (Do Not Forsake Me)
TTITLE2=Tumbling Tumbleweeds
TTITLE3=Cool Water
TTITLE4=I'm an Old Cowhand (From the Rio Grande)
TTITLE5=Home on the Range
TTITLE6=Oklahoma Hills
TTITLE7=Red River Valley
TTITLE8=Don't Fence Me In
TTITLE9=Back in the Saddle Again
EXTD=
EXTT0=
EXTT1=
EXTT2=
EXTT3=
EXTT4=
EXTT5=
EXTT6=
EXTT7=
EXTT8=
EXTT9=
PLAYORDER=
